<svg width="32" height="32" viewBox="0 0 32 32" fill="none" xmlns="http://www.w3.org/2000/svg">
<g clip-path="url(#clip0_1816_12391)">
<path fill-rule="evenodd" clip-rule="evenodd" d="M31.3672 27.7357C31.0561 28.5258 30.3384 29.6383 29.3205 30.4219C28.7329 30.8745 28.0313 31.3072 27.0676 31.5927C26.0403 31.8971 24.7749 32 23.2 32H8.8001C7.22534 32 5.95999 31.8971 4.93258 31.5927C3.96888 31.3072 3.2674 30.8745 2.67962 30.4219C1.66187 29.6382 0.943989 28.5258 0.632929 27.7357C0.00635821 26.1438 0 24.3376 0 23.2V8.79997C0 7.66243 0.00635821 5.85622 0.632929 4.26429C0.943989 3.47418 1.66174 2.36169 2.67962 1.57806C3.26727 1.12546 3.96888 0.692826 4.93258 0.407328C5.95986 0.102881 7.22521 0 8.8001 0H23.2002C24.7749 0 26.0403 0.102881 27.0677 0.407328C28.0314 0.692826 28.7329 1.12559 29.3206 1.57806C30.3384 2.36182 31.0563 3.47418 31.3673 4.26429C31.9939 5.85622 32.0003 7.66243 32.0003 8.79997V23.2C32.0001 24.3375 31.9938 26.1437 31.3672 27.7357Z" fill="url(#paint0_linear_1816_12391)"/>
<path d="M18.3207 18.3932C17.8405 17.8866 16.9971 17.5618 16.0014 17.5618C15.0057 17.5618 14.1623 17.8866 13.6821 18.3932C13.4316 18.6576 13.2991 18.9286 13.2573 19.3147C13.1765 20.0624 13.2219 20.7061 13.3095 21.7353C13.3929 22.716 13.5514 24.0239 13.7581 25.3559C13.9053 26.3038 14.0248 26.8154 14.1337 27.1818C14.3102 27.7755 14.9698 28.2948 16.0014 28.2948C17.0329 28.2948 17.6926 27.7754 17.8691 27.1818C17.9779 26.8154 18.0975 26.3038 18.2446 25.3559C18.4514 24.0239 18.6098 22.716 18.6933 21.7353C18.7809 20.706 18.8263 20.0622 18.7454 19.3147C18.7037 18.9288 18.5712 18.6576 18.3207 18.3932ZM13.385 13.8821C13.385 15.3284 14.5575 16.5009 16.0039 16.5009C17.4503 16.5009 18.6228 15.3284 18.6228 13.8821C18.6228 12.4357 17.4503 11.2632 16.0039 11.2632C14.5575 11.2632 13.385 12.4357 13.385 13.8821ZM15.9714 3.54692C9.84645 3.56435 4.82766 8.53329 4.75186 14.6579C4.69031 19.6192 7.85738 23.8631 12.2798 25.4187C12.3871 25.4564 12.4961 25.3673 12.4792 25.2548C12.4212 24.8695 12.3665 24.4824 12.3163 24.1018C12.2985 23.9673 12.2128 23.8513 12.0885 23.797C8.59306 22.2699 6.15227 18.7643 6.19144 14.7036C6.24281 9.37465 10.5944 5.03024 15.9234 4.98713C21.3712 4.94313 25.8172 9.36207 25.8172 14.7999C25.8172 18.8199 23.3871 22.2825 19.9189 23.7974C19.7947 23.8517 19.7095 23.968 19.6918 24.1025C19.6416 24.4829 19.5869 24.8699 19.529 25.2548C19.512 25.3673 19.621 25.4564 19.7283 25.4188C24.1084 23.8781 27.2571 19.7002 27.2571 14.8C27.2568 8.58403 22.1912 3.52912 15.9714 3.54692ZM15.7681 8.70942C19.2402 8.575 22.1077 11.3606 22.1077 14.8033C22.1077 16.5542 21.3659 18.135 20.1803 19.2482C20.0797 19.3426 20.0256 19.4766 20.0334 19.6143C20.057 20.0331 20.0484 20.4401 20.0205 20.8997C20.013 21.0221 20.1504 21.1003 20.2517 21.0313C22.2399 19.6726 23.5476 17.388 23.5476 14.8033C23.5476 10.5477 20.0029 7.10427 15.711 7.27061C11.7224 7.42525 8.52235 10.7138 8.47123 14.7052C8.43765 17.3302 9.75336 19.6558 11.7672 21.0315C11.8683 21.1006 12.0052 21.0223 11.9977 20.8999C11.9697 20.4401 11.9612 20.0331 11.9847 19.6143C11.9925 19.4767 11.9386 19.3427 11.8382 19.2485C10.6156 18.1006 9.86477 16.4557 9.91258 14.6397C9.99677 11.4439 12.5734 8.83316 15.7681 8.70942Z" fill="white"/>
</g>
<defs>
<linearGradient id="paint0_linear_1816_12391" x1="16.0001" y1="0" x2="16.0001" y2="32" gradientUnits="userSpaceOnUse">
<stop stop-color="#F452FF"/>
<stop offset="1" stop-color="#832BC1"/>
</linearGradient>
<clipPath id="clip0_1816_12391">
<rect width="32" height="32" fill="white"/>
</clipPath>
</defs>
</svg>
