<svg width="128" height="42" viewBox="0 0 128 42" fill="none" xmlns="http://www.w3.org/2000/svg">
<g clip-path="url(#clip0_1977_489)">
<path d="M33.7246 15.9556H36.1298V27.5378H33.7246V15.9556Z" fill="white"/>
<path d="M41.6269 20.6179C40.8742 20.6179 40.3506 20.9451 40.0561 21.5831C39.9088 21.9266 39.8434 22.3519 39.8434 22.8918V27.5378H37.6182V18.982H39.7779V20.2253C40.0725 19.7836 40.3343 19.4727 40.596 19.2764C41.0542 18.9329 41.6432 18.7529 42.3468 18.7529C43.2303 18.7529 43.9503 18.982 44.5229 19.4564C45.0792 19.9144 45.3737 20.6833 45.3737 21.763V27.5378H43.0831V22.3192C43.0831 21.8612 43.0176 21.5176 42.9031 21.2886C42.674 20.8469 42.2486 20.6179 41.6269 20.6179Z" fill="white"/>
<path d="M54.8969 15.9719V27.5378H52.7207V26.3436C52.3935 26.8508 52.0335 27.227 51.6245 27.456C51.2154 27.6851 50.7082 27.7996 50.1028 27.7996C49.1047 27.7996 48.2539 27.3906 47.5831 26.589C46.8959 25.7711 46.5522 24.7404 46.5522 23.4644C46.5522 22.0084 46.8958 20.8469 47.5667 20.0126C48.2375 19.1783 49.1374 18.753 50.2664 18.753C50.79 18.753 51.2481 18.8675 51.6572 19.0965C52.0662 19.3256 52.3935 19.6364 52.6389 20.0454V15.9556H54.8969V15.9719ZM48.8593 23.3008C48.8593 24.0861 49.0229 24.7241 49.3338 25.1985C49.6447 25.6729 50.1192 25.9183 50.7573 25.9183C51.3954 25.9183 51.8699 25.6893 52.1971 25.2148C52.5244 24.7404 52.688 24.1351 52.688 23.3826C52.688 22.3356 52.4262 21.5831 51.8863 21.1414C51.559 20.8633 51.1827 20.7324 50.7573 20.7324C50.1028 20.7324 49.6283 20.9778 49.3174 21.4686C49.0065 21.9594 48.8593 22.5647 48.8593 23.3008Z" fill="white"/>
<path d="M62.0963 26.3272C62.0799 26.3599 62.0145 26.4253 61.9327 26.5562C61.8509 26.6871 61.7527 26.8016 61.6381 26.8998C61.2945 27.2106 60.9509 27.4233 60.6237 27.5378C60.2965 27.6523 59.9201 27.7177 59.4784 27.7177C58.2021 27.7177 57.3513 27.2597 56.9095 26.3435C56.6641 25.8364 56.5332 25.1003 56.5332 24.1187V18.9492H58.8239V24.1187C58.8239 24.6095 58.873 24.9694 59.0039 25.2148C59.2166 25.6565 59.6093 25.8691 60.2147 25.8691C60.9837 25.8691 61.5073 25.5583 61.7854 24.9367C61.9327 24.6095 61.9981 24.1514 61.9981 23.6116V18.9492H64.2724V27.5214H62.0963V26.3272Z" fill="white"/>
<path d="M71.7335 19.358C72.4043 19.7833 72.797 20.5195 72.8952 21.5665H70.6536C70.6209 21.272 70.5391 21.043 70.4082 20.8794C70.1627 20.5686 69.7373 20.4213 69.1483 20.4213C68.6574 20.4213 68.3138 20.5031 68.1011 20.6504C67.8884 20.7976 67.7902 20.9775 67.7902 21.1902C67.7902 21.4519 67.9048 21.6319 68.1175 21.7464C68.3302 21.8609 69.1156 22.0736 70.4573 22.3681C71.3408 22.5807 72.0116 22.8916 72.4698 23.3169C72.9115 23.7422 73.1243 24.2821 73.1243 24.9201C73.1243 25.7708 72.8134 26.4578 72.1753 26.9977C71.5371 27.5375 70.5718 27.7993 69.2465 27.7993C67.9048 27.7993 66.9067 27.5212 66.2686 26.9486C65.6305 26.3761 65.3032 25.6562 65.3032 24.7729H67.5775C67.6266 25.1655 67.7248 25.4599 67.8884 25.6235C68.1666 25.918 68.6738 26.0652 69.4264 26.0652C69.8682 26.0652 70.2118 25.9998 70.4736 25.8689C70.7354 25.738 70.8663 25.5417 70.8663 25.28C70.8663 25.0346 70.7681 24.8383 70.5554 24.7074C70.3427 24.5765 69.5737 24.3475 68.2157 24.0367C67.2503 23.7913 66.5631 23.4968 66.1704 23.1369C65.7777 22.777 65.565 22.2699 65.565 21.5992C65.565 20.8139 65.8759 20.1269 66.4976 19.5543C67.1194 18.9817 67.9866 18.7036 69.1156 18.7036C70.1955 18.72 71.0626 18.9326 71.7335 19.358Z" fill="white"/>
<path d="M78.1141 25.9346V27.6032L77.0506 27.6359C75.9871 27.6686 75.2672 27.4887 74.8745 27.0797C74.629 26.818 74.4981 26.4253 74.4981 25.8855V20.6342H73.3037V19.031H74.4981V16.6426H76.707V19.031H78.0978V20.6342H76.707V25.1657C76.707 25.5092 76.7561 25.7383 76.8379 25.8201C76.9197 25.9019 77.1979 25.9509 77.656 25.9509C77.7215 25.9509 77.8033 25.9509 77.8687 25.9509C77.9342 25.9509 78.0487 25.9509 78.1141 25.9346Z" fill="white"/>
<path d="M83.7754 21.0266C82.8755 21.0266 82.2701 21.3211 81.9592 21.91C81.7792 22.2372 81.6974 22.7443 81.6974 23.4314V27.5212H79.4395V18.949H81.5829V20.4377C81.9265 19.8651 82.2374 19.4725 82.4828 19.2598C82.9082 18.9163 83.4481 18.7363 84.119 18.7363C84.1681 18.7363 84.2008 18.7363 84.2172 18.7363C84.2499 18.7363 84.3153 18.7363 84.4135 18.7527V21.043C84.2662 21.0266 84.1517 21.0102 84.0372 21.0102C83.9226 21.043 83.8408 21.0266 83.7754 21.0266Z" fill="white"/>
<path d="M89.7476 25.28L91.5147 18.9653H93.9035L90.9584 27.3903C90.3857 29.0098 89.9439 30.0241 89.6167 30.4167C89.2894 30.8093 88.6186 31.0057 87.6369 31.0057C87.4405 31.0057 87.2769 31.0057 87.1624 31.0057C87.0478 31.0057 86.8679 30.9893 86.6224 30.9729V29.1734L86.9006 29.1898C87.1133 29.2062 87.326 29.1898 87.5223 29.1734C87.7187 29.1407 87.8823 29.0916 88.0296 28.9935C88.1604 28.9117 88.275 28.7154 88.3895 28.4373C88.5041 28.1592 88.5531 27.9792 88.5204 27.9138L85.3789 18.9653H87.8659L89.7476 25.28Z" fill="white"/>
<path d="M94.231 15.939H102.674V16.8714H99.0087V27.5212H97.9124V16.8714H94.2473V15.939H94.231Z" fill="white"/>
<path d="M107.19 22.6791C107.37 22.6627 107.582 22.63 107.844 22.5809C108.09 22.5319 108.302 22.4828 108.466 22.401C108.63 22.3192 108.728 22.2047 108.76 22.0247C108.793 21.8448 108.809 21.6812 108.809 21.534C108.809 21.0432 108.646 20.6342 108.335 20.3234C108.024 20.0126 107.484 19.849 106.732 19.849C106.404 19.849 106.093 19.8817 105.815 19.9308C105.537 19.9962 105.292 20.0944 105.079 20.2416C104.866 20.3888 104.703 20.5851 104.572 20.8142C104.441 21.0595 104.343 21.354 104.31 21.7303H103.328C103.361 21.2395 103.475 20.8142 103.672 20.4706C103.868 20.1271 104.114 19.8326 104.424 19.6199C104.735 19.4073 105.079 19.2437 105.488 19.1292C105.897 19.031 106.322 18.9819 106.764 18.9819C107.19 18.9819 107.582 19.031 107.942 19.1128C108.319 19.211 108.63 19.3418 108.908 19.5545C109.186 19.7508 109.399 20.0126 109.546 20.3561C109.709 20.6833 109.775 21.0923 109.775 21.583V26.1145C109.775 26.4908 109.84 26.7362 109.971 26.8343C110.102 26.9325 110.38 26.9161 110.789 26.7689V27.5214C110.707 27.5378 110.609 27.5705 110.462 27.6196C110.315 27.6686 110.168 27.685 110.037 27.685C109.889 27.685 109.742 27.6686 109.595 27.6359C109.431 27.6196 109.3 27.5705 109.202 27.4887C109.104 27.4069 109.022 27.3087 108.973 27.1942C108.908 27.0797 108.875 26.9652 108.859 26.818C108.842 26.6871 108.826 26.5399 108.826 26.3926C108.417 26.8507 107.959 27.1942 107.419 27.4232C106.895 27.6523 106.322 27.7832 105.717 27.7832C105.357 27.7832 104.997 27.7341 104.67 27.6359C104.326 27.5378 104.032 27.3905 103.77 27.1779C103.508 26.9816 103.312 26.7198 103.165 26.4253C103.017 26.1309 102.936 25.771 102.936 25.3784C102.936 23.9551 103.901 23.1208 105.848 22.8591L107.19 22.6791ZM108.826 23.1535C108.417 23.3171 108.008 23.4316 107.582 23.4971C107.157 23.5461 106.748 23.5952 106.322 23.6279C105.586 23.677 104.997 23.8406 104.588 24.1351C104.179 24.4132 103.966 24.8385 103.966 25.4111C103.966 25.6728 104.015 25.8855 104.114 26.0818C104.212 26.2617 104.343 26.4253 104.523 26.5562C104.686 26.6871 104.883 26.7689 105.095 26.8343C105.308 26.8998 105.537 26.9161 105.766 26.9161C106.159 26.9161 106.535 26.867 106.895 26.7689C107.255 26.6707 107.582 26.5235 107.877 26.3272C108.155 26.1309 108.384 25.8691 108.564 25.5747C108.728 25.2638 108.826 24.9039 108.826 24.495V23.1535Z" fill="white"/>
<path d="M111.738 27.5376V15.939H112.704V27.5376H111.738Z" fill="white"/>
<path d="M114.373 27.5376V15.939H115.338V23.1533L119.428 19.1944H120.754L117.629 22.2045L121.13 27.5376H120.05L116.925 22.8916L115.354 24.3803V27.5376H114.373Z" fill="white"/>
<path d="M122.324 24.9203C122.472 25.6401 122.75 26.1472 123.143 26.4417C123.535 26.7362 124.092 26.8834 124.828 26.8834C125.188 26.8834 125.482 26.8343 125.744 26.7525C126.006 26.6707 126.219 26.5562 126.382 26.409C126.546 26.2618 126.677 26.0982 126.759 25.9182C126.84 25.7383 126.889 25.542 126.889 25.3456C126.889 24.9367 126.759 24.6422 126.497 24.4295C126.235 24.2332 125.908 24.0696 125.499 23.9551C125.106 23.8406 124.664 23.7424 124.206 23.6607C123.748 23.5789 123.323 23.4643 122.914 23.3007C122.521 23.1372 122.194 22.9081 121.915 22.6137C121.654 22.3192 121.523 21.8939 121.523 21.3377C121.523 20.6342 121.785 20.0616 122.292 19.6199C122.799 19.1782 123.519 18.9492 124.452 18.9492C125.351 18.9492 126.088 19.1455 126.644 19.5545C127.2 19.9635 127.544 20.6342 127.675 21.583H126.693C126.611 20.945 126.366 20.487 125.957 20.2252C125.548 19.9635 125.041 19.8326 124.435 19.8326C123.83 19.8326 123.355 19.9635 123.028 20.2252C122.701 20.487 122.537 20.8305 122.537 21.2559C122.537 21.6321 122.668 21.9266 122.93 22.1229C123.192 22.3192 123.519 22.4828 123.928 22.6137C124.321 22.7445 124.762 22.8427 125.221 22.9409C125.679 23.039 126.104 23.1699 126.513 23.3498C126.906 23.5298 127.233 23.7588 127.511 24.0696C127.773 24.3641 127.904 24.7894 127.904 25.3293C127.904 25.7219 127.822 26.0818 127.642 26.3763C127.479 26.6871 127.233 26.9325 126.939 27.1451C126.644 27.3415 126.284 27.505 125.875 27.6032C125.466 27.7014 125.008 27.7504 124.517 27.7504C124.026 27.7504 123.584 27.685 123.208 27.5378C122.832 27.3905 122.504 27.1942 122.226 26.9325C121.965 26.6707 121.752 26.3763 121.605 26.0327C121.457 25.6892 121.375 25.3129 121.343 24.9203H122.324Z" fill="white"/>
<path d="M6.41825 23.3533C6.41825 23.3533 24.0377 -10.0691 26.0154 3.05336C26.0154 3.05336 28.8407 19.0776 18.7082 23.7899C18.7082 23.7899 12.8008 26.8329 7.39426 18.7694C3.06644 12.3366 2.77107 13.1327 4.56898 18.808C6.0972 23.6101 12.1073 35.3201 14.8299 38.8511C17.5524 42.3821 19.4531 43.6532 20.0695 38.8896C20.6859 34.126 21.0327 24.9326 17.6423 29.0671C14.252 33.2015 7.86942 39.2877 2.18033 40.302C-3.50875 41.3164 3.3875 28.8616 6.41825 23.3533Z" fill="white"/>
</g>
<defs>
<clipPath id="clip0_1977_489">
<rect width="127.904" height="42" fill="white"/>
</clipPath>
</defs>
</svg>
