<svg width="32" height="32" viewBox="0 0 32 32" fill="none" xmlns="http://www.w3.org/2000/svg">
<g clip-path="url(#clip0_1816_12372)">
<mask id="mask0_1816_12372" style="mask-type:luminance" maskUnits="userSpaceOnUse" x="0" y="0" width="33" height="32">
<path d="M32.0005 0H0.000488281V32H32.0005V0Z" fill="white"/>
</mask>
<g mask="url(#mask0_1816_12372)">
<path d="M4.00048 14.9092V17.0911C4.00048 18.1957 3.10505 19.0911 2.00048 19.0911C0.895926 19.0911 0.000488281 18.1957 0.000488281 17.0911V14.9092C0.000488281 13.8047 0.895926 12.9092 2.00048 12.9092C3.10505 12.9092 4.00048 13.8047 4.00048 14.9092Z" fill="#0066D9"/>
<path d="M28.0014 14.9661C28.0008 14.9472 28.0006 14.9282 28.0005 14.9092C28.0005 13.8047 28.896 12.9092 30.0005 12.9092C31.1051 12.9092 32.0005 13.8047 32.0005 14.9092C32.0005 14.9282 32.0003 14.9472 31.9997 14.9661L32.0005 17.1479C31.9705 18.2262 31.0861 19.0911 30.0005 19.0911C28.915 19.0911 28.0314 18.2262 28.0014 17.1479V14.9661Z" fill="#4285F4"/>
<path d="M10.9097 21.4542V23.636C10.9097 24.7406 10.0143 25.636 8.90967 25.636C7.80504 25.636 6.90967 24.7406 6.90967 23.636V21.4541C6.90967 20.3496 7.80511 19.4541 8.90967 19.4541C10.0142 19.4541 10.9097 20.3497 10.9097 21.4542ZM10.9097 8.36328V15.4996C10.8856 16.5832 9.99904 17.4542 8.90967 17.4542C7.82029 17.4542 6.93436 16.5832 6.91023 15.4996L6.90967 8.36328C6.90967 7.25871 7.80511 6.36328 8.90967 6.36328C10.0142 6.36328 10.9097 7.25871 10.9097 8.36328Z" fill="#EA4335"/>
<path d="M21.0913 10.5451C21.0913 11.6496 21.9867 12.5451 23.0913 12.5451C24.1959 12.5451 25.0913 11.6496 25.0913 10.5451V8.36328C25.0913 7.25872 24.1959 6.36328 23.0913 6.36328C21.9867 6.36328 21.0913 7.25872 21.0913 8.36328V10.5451Z" fill="#34A853"/>
<path d="M14.0005 4.18188C14.0005 5.28638 14.896 6.18188 16.0005 6.18188C17.1051 6.18188 18.0005 5.28638 18.0005 4.18188V2C18.0005 0.895437 17.1051 0 16.0005 0C14.896 0 14.0005 0.895437 14.0005 2V4.18188ZM14.0005 27.8181C14.0005 26.7136 14.896 25.8181 16.0005 25.8181C17.1051 25.8181 18.0005 26.7136 18.0005 27.8181V30C18.0005 31.1046 17.1051 32 16.0005 32C14.896 32 14.0005 31.1046 14.0005 30V27.8181Z" fill="#FAB908"/>
<path d="M21.0913 16.5449C21.0913 15.4403 21.9867 14.5449 23.0913 14.5449C24.1959 14.5449 25.0913 15.4403 25.0913 16.5449V23.6358C25.0913 24.7404 24.1959 25.6358 23.0913 25.6358C21.9867 25.6358 21.0913 24.7404 21.0913 23.6358V16.5449Z" fill="#34A853"/>
<path d="M18.0005 10.1817V21.8179C18.0005 22.9226 17.1051 23.8179 16.0005 23.8179C14.896 23.8179 14.0005 22.9226 14.0005 21.8179V10.1817C14.0005 9.07702 14.896 8.18164 16.0005 8.18164C17.1051 8.18164 18.0005 9.07702 18.0005 10.1817Z" fill="#FAB908"/>
</g>
</g>
<defs>
<clipPath id="clip0_1816_12372">
<rect width="32" height="32" fill="white"/>
</clipPath>
</defs>
</svg>
