<svg width="32" height="32" viewBox="0 0 32 32" fill="none" xmlns="http://www.w3.org/2000/svg">
<g clip-path="url(#clip0_1816_12394)">
<mask id="mask0_1816_12394" style="mask-type:luminance" maskUnits="userSpaceOnUse" x="0" y="0" width="32" height="32">
<path d="M31.6596 0H0.000488281V32H31.6596V0Z" fill="white"/>
</mask>
<g mask="url(#mask0_1816_12394)">
<path d="M31.6595 16C31.6595 24.8889 24.5269 32 15.8925 32C7.2583 32 0.000488281 24.8889 0.000488281 16C0.000488281 7.11112 7.13316 0 15.7674 0C24.4017 0 31.6595 7.11112 31.6595 16Z" fill="url(#paint0_linear_1816_12394)"/>
<path d="M4.67003 17.0686C4.67614 17.0157 4.71365 16.9785 4.76091 16.9785C4.80646 16.9785 4.8442 17.0157 4.85127 17.0683L5.0476 18.3453L4.85127 19.6006C4.84397 19.6532 4.80669 19.6898 4.76091 19.6898C4.71362 19.6898 4.67614 19.6529 4.67003 19.6001L4.50439 18.3453L4.67003 17.0686Z" fill="white"/>
<path d="M5.59866 16.1885C5.6464 16.1885 5.68513 16.2264 5.69293 16.2812L5.946 18.3455L5.69268 20.3646C5.6849 20.4193 5.64615 20.4573 5.59866 20.4573C5.55044 20.4573 5.51073 20.4182 5.50439 20.3641L5.28174 18.3455L5.50439 16.2812C5.51096 16.2276 5.55067 16.1885 5.59866 16.1885Z" fill="white"/>
<path d="M9.03078 14.5494C9.03515 14.453 9.11074 14.377 9.20209 14.377C9.2929 14.377 9.36815 14.453 9.37357 14.5494L9.57401 18.3472L9.37357 20.8018C9.36823 20.898 9.2929 20.9732 9.20209 20.9732C9.11074 20.9732 9.03541 20.8975 9.03078 20.8016L8.85352 18.3472L9.03078 14.5494Z" fill="white"/>
<path d="M7.25248 15.83C7.2581 15.7541 7.31534 15.6973 7.38549 15.6973C7.45491 15.6973 7.51215 15.7541 7.51826 15.8295L7.74528 18.3464L7.51826 20.781C7.51215 20.8564 7.45491 20.9133 7.38549 20.9133C7.31532 20.9133 7.25783 20.8564 7.25248 20.781L7.05273 18.3464L7.25248 15.83Z" fill="white"/>
<path d="M11.2567 20.7618C11.2521 20.8805 11.16 20.9732 11.0468 20.9732C10.9327 20.9732 10.8404 20.8802 10.8368 20.7626L10.6826 18.3484L10.8368 13.2927C10.8405 13.174 10.9328 13.0811 11.047 13.0811C11.1603 13.0811 11.2524 13.1738 11.257 13.2924L11.4307 18.3487L11.2567 20.7618Z" fill="white"/>
<path d="M15.1125 20.6948C15.1096 20.8549 14.981 20.9852 14.8251 20.9852C14.6691 20.9852 14.5401 20.8549 14.5376 20.6962C14.5376 20.6962 14.4292 18.3526 14.4292 18.3489L14.5376 12.5114C14.54 12.351 14.6689 12.2207 14.8251 12.2207C14.981 12.2207 15.1098 12.3513 15.1125 12.5112L15.2338 18.3508L15.1125 20.6948Z" fill="white"/>
<path d="M13.1702 20.7238C13.1665 20.8647 13.0571 20.9752 12.9214 20.9752C12.7848 20.9752 12.6755 20.8647 12.6725 20.7253L12.541 18.3493L12.6723 13.2561C12.6752 13.1152 12.7846 13.0049 12.9213 13.0049C13.0569 13.0049 13.1662 13.1152 13.1699 13.2561L13.3178 18.349L13.1702 20.7255V20.7238Z" fill="white"/>
<path d="M8.44229 20.8009C8.43617 20.8872 8.3709 20.9527 8.29023 20.9527C8.20843 20.9527 8.14342 20.8872 8.138 20.8006L7.94971 18.346L8.138 16.0118C8.14316 15.925 8.20843 15.8594 8.29023 15.8594C8.37116 15.8594 8.43643 15.9245 8.44229 16.0107L8.65613 18.346L8.44229 20.8009Z" fill="white"/>
<path d="M6.60204 20.7063C6.59522 20.7716 6.54747 20.8188 6.48854 20.8188C6.4286 20.8188 6.38085 20.7713 6.375 20.7059L6.16357 18.3461L6.375 15.8969C6.38109 15.8317 6.42882 15.7842 6.48852 15.7842C6.54746 15.7842 6.5952 15.8315 6.60227 15.8969L6.84222 18.3461L6.60204 20.7063Z" fill="white"/>
<path d="M13.6011 13.4431C13.6041 13.2908 13.7222 13.1719 13.8696 13.1719C14.0167 13.1719 14.1341 13.2908 14.1375 13.4426L14.272 18.3504L14.1375 20.7116V20.7096C14.1341 20.8618 14.0167 20.9805 13.8696 20.9805C13.722 20.9805 13.6041 20.8616 13.6011 20.7113L13.4814 18.3502L13.6011 13.4431Z" fill="white"/>
<path d="M10.312 20.7866C10.3071 20.8941 10.2231 20.9785 10.1213 20.9785C10.0185 20.9785 9.93465 20.8941 9.93053 20.7876L9.76465 18.3486L9.93027 13.682C9.93473 13.5745 10.0185 13.4902 10.1213 13.4902C10.2231 13.4902 10.3069 13.5742 10.312 13.682L10.4991 18.3486L10.312 20.7866Z" fill="white"/>
<path d="M12.2103 20.7479C12.2059 20.8768 12.1056 20.9778 11.9811 20.9778C11.8562 20.9778 11.7553 20.8761 11.7519 20.7477L11.6089 18.3486L11.7517 13.1222C11.755 12.9922 11.8559 12.8906 11.9811 12.8906C12.1056 12.8906 12.2064 12.9924 12.2103 13.1222L12.3711 18.3489L12.2103 20.7466V20.7479Z" fill="white"/>
<path d="M23.2917 15.5556C23.6235 15.4145 23.9877 15.3362 24.3694 15.3362C25.9079 15.3362 27.1551 16.6022 27.1551 18.1638C27.1551 19.7253 25.9077 20.9912 24.3692 20.9912C24.3194 20.9912 16.6536 20.9873 16.6465 20.9865C16.4801 20.9694 16.3479 20.8253 16.3457 20.6523V11.6792C16.3477 11.5143 16.4037 11.4293 16.6139 11.3467C17.1549 11.1344 17.7676 11.0088 18.396 11.0088C20.9645 11.0088 23.07 13.0076 23.2917 15.5556Z" fill="white"/>
<path d="M15.469 11.9825C15.4715 11.8113 15.6089 11.6719 15.7762 11.6719C15.9431 11.6719 16.0804 11.8113 16.0829 11.9821L16.2195 18.3515L16.0829 20.6633V20.6605C16.0804 20.8319 15.9431 20.971 15.7762 20.971C15.6089 20.971 15.4715 20.8319 15.4693 20.663L15.3433 18.3515L15.469 11.9825Z" fill="white"/>
</g>
</g>
<defs>
<linearGradient id="paint0_linear_1816_12394" x1="15.83" y1="0" x2="15.83" y2="32" gradientUnits="userSpaceOnUse">
<stop stop-color="#FF7602"/>
<stop offset="1" stop-color="#FF3502"/>
</linearGradient>
<clipPath id="clip0_1816_12394">
<rect width="32" height="32" fill="white"/>
</clipPath>
</defs>
</svg>
