<svg width="32" height="32" viewBox="0 0 32 32" fill="none" xmlns="http://www.w3.org/2000/svg">
<path d="M15.9994 0.0527344C7.19005 0.0527344 0.0483398 7.19426 0.0483398 16.0036C0.0483398 24.8133 7.19005 31.9543 15.9994 31.9543C24.8097 31.9543 31.9506 24.8133 31.9506 16.0036C31.9506 7.19483 24.8099 0.0527344 15.9994 0.0527344ZM23.3144 23.0584C23.0287 23.527 22.4154 23.6756 21.9468 23.388C18.2017 21.1004 13.487 20.5823 7.93463 21.8508C7.39958 21.9727 6.86624 21.6375 6.74434 21.1023C6.62186 20.567 6.95577 20.0337 7.49215 19.9118C13.5683 18.523 18.7803 19.1213 22.9849 21.6908C23.4535 21.9784 23.6021 22.5899 23.3144 23.0584ZM25.2668 18.7146C24.9068 19.3004 24.1411 19.4851 23.5563 19.1251C19.2687 16.4891 12.7329 15.7259 7.66148 17.2653C7.00377 17.464 6.3091 17.0933 6.10948 16.4367C5.91139 15.779 6.28224 15.0857 6.93882 14.8857C12.7318 13.128 19.9335 13.9794 24.8573 17.0051C25.4421 17.3651 25.6268 18.1306 25.2668 18.7146ZM25.4344 14.192C20.2935 11.1384 11.8116 10.8577 6.9032 12.3474C6.11501 12.5864 5.28148 12.1415 5.04263 11.3533C4.80377 10.5647 5.24834 9.73178 6.0371 9.49216C11.6716 7.78169 21.0382 8.11216 26.9571 11.6259C27.6676 12.0466 27.9 12.9623 27.479 13.6703C27.06 14.3792 26.1411 14.6129 25.4344 14.192Z" fill="#1ED760"/>
</svg>
